<svg id="Layer_1" data-name="Layer 1" xmlns="http://www.w3.org/2000/svg" viewBox="0 0 476.58 310.58"><defs><style>.cls-1{fill:#f3deb5;}</style></defs><path class="cls-1" d="M168.82,199.4c0,4-.09,8-.09,12.08,0,4.23.06,8.46.1,12.69,0,.48-.08,1-.08,1.44q0,22.62,0,45.25c0,.89-.05,1.78-.08,2.67-4.39,4.26-9.67,7-15.26,9.33a10.29,10.29,0,0,0-4,1,8.17,8.17,0,0,1-1.75.58c-.58.15-1.31.51-1.66-.18s.32-1.13.75-1.53a14,14,0,0,1,2.52-2.11c1.52-.86,1.86-2,1.86-3.7q-.07-59.7,0-119.39a7.53,7.53,0,0,0-1.71-5.07c-3.42-4.12-7-8.13-10.43-12.2-.52-.61-.93-.61-1.54-.12-2.08,1.68-4.19,3.31-6.29,5-1.29.5-.81,1.62-.81,2.49q0,28.62,0,57.23c0,.68.06,1.36.09,2-.17,5.49-.16,11,0,16.45,0,.75-.09,1.5-.09,2.26q0,30.08.07,60.15a4.71,4.71,0,0,1-1.88,4,50.1,50.1,0,0,1-12.61,7.3,7.27,7.27,0,0,0-2.56,1.25,23.89,23.89,0,0,1-4.53,1.8c-.65.18-1.51.52-1.89-.1s.24-1.41.76-1.95a20,20,0,0,1,3.87-3,2,2,0,0,0,1.13-2c-.06-1.3,0-2.61,0-3.91q0-66.24,0-132.47c0-1-.12-2-.13-3.08a1.78,1.78,0,0,0-.67-1.42q-6.42-5.49-12.8-11c-.56-.49-1-.57-1.56-.05-1.54,1.36-3.09,2.72-4.68,4a2.1,2.1,0,0,0-.81,2.35c0,.54-.09,1.09-.09,1.63q0,37.44,0,74.88c0,.62.06,1.23.1,1.84-.18,5.93-.16,11.85,0,17.77,0,.68-.08,1.36-.08,2,0,18.17,0,36.33.07,54.49a4.67,4.67,0,0,1-1.89,4A52.66,52.66,0,0,1,82,309.5,6.35,6.35,0,0,0,80,310.61a21.06,21.06,0,0,0-3.94,1.76A35.84,35.84,0,0,1,71,314.59a3,3,0,0,1-2.33.05,3.33,3.33,0,0,1,1.3-2A26.34,26.34,0,0,1,73,310.27a2.63,2.63,0,0,0,1.38-2.69c-.08-1.64,0-3.3,0-4.94q0-72.31,0-144.63a6.91,6.91,0,0,0-.1-2,2.1,2.1,0,0,1,.79-2.36c.4-.38.8-.76,1.22-1.12l16.13-13.77c.36-.31.9-.6,1-1,.6-2.16,2.43-3.25,3.9-4.65,2.1-1.26,4.19-2.56,6.32-3.77a31.94,31.94,0,0,1,5.79-2.58,2.68,2.68,0,0,1,3,.61c3.88,3.46,7.84,6.81,11.79,10.2a3.33,3.33,0,0,0,1.31.94c.93,1,1.82,2.4,3.09,2.53,1.08.1,2-1.33,3-2a5.28,5.28,0,0,0,2.6-3.75,3.89,3.89,0,0,1,1.42-2.2l1.84-1.63c2.48-1.46,4.82-3.15,7.41-4.41a33.74,33.74,0,0,1,5.11-2.16,2.28,2.28,0,0,1,2.69.83c4.51,5.36,9.1,10.64,13.69,15.93.52.6.89,1.39,1.79,1.61.49.12.51.59.51,1s0,1.09,0,1.64q0,23.28,0,46.55c0,.82.07,1.64.1,2.46A22.46,22.46,0,0,0,168.82,199.4Z" transform="translate(-41.75 -124.74)"/><path class="cls-1" d="M349.21,251.48c1.67-1.06,3.35-2.12,5-3.2a37.43,37.43,0,0,1,11.13-4.89,8,8,0,0,1,6.82,1.4,29.67,29.67,0,0,1,3.8,3.46,57.05,57.05,0,0,0,11.73,9.33,20.21,20.21,0,0,0,13.09,2.55c.93-.13,1.31-.46,1.32-1.42.06-8,.93-16,.74-24.08-.07-2.61-.24-5.21-.3-7.82a3.89,3.89,0,0,0-1.34-2.81,1.8,1.8,0,0,0-.18-1.19c-1.34-1.91-2.69-3.77-4.86-4.87a6.67,6.67,0,0,1-3.85-6.86,17.91,17.91,0,0,1,1-3.76,9.6,9.6,0,0,1,2.93-3.24,2,2,0,0,0,.79-2.45,30.79,30.79,0,0,1-.82-3.57,31.65,31.65,0,0,1,0-7.72,31,31,0,0,1,2.23-6.61,32.94,32.94,0,0,1,4-5.86,13.47,13.47,0,0,0-3.16-.3c-1.87,0-2.4-.4-3-2.18a21.88,21.88,0,0,1-.85-5.27c-.29-3.42-.34-6.86-.87-10.25a21.14,21.14,0,0,1,.09-2.26c.45-3,2.06-4.41,5.42-3.2a7.23,7.23,0,0,1,1.43.8c3.5,2.3,7,4.59,10.49,6.9a15.37,15.37,0,0,1,3,2.53,2.52,2.52,0,0,1,.39,3.36,4,4,0,0,0-.94,2.44,2.68,2.68,0,0,0,1.81,0A23.53,23.53,0,0,1,437.39,177a3.21,3.21,0,0,0,3.76,1,8.89,8.89,0,0,1,7.37.75,6.16,6.16,0,0,1,3.46,5.88,14.21,14.21,0,0,0,2.11,7.42,3.74,3.74,0,0,0,5.61,1.38,37.24,37.24,0,0,0,3.21-2.57c.71-.56.45-1.19.2-1.85a19,19,0,0,1-1.38-7,20.79,20.79,0,0,1,3.17-10.52,32.8,32.8,0,0,1,11.79-11.55c12-7.08,26.7.77,29.6,12.76,1.22,5,1,10.09.63,15.16a63.58,63.58,0,0,1-1.25,7.51,20.3,20.3,0,0,0-.33,3.48,3.45,3.45,0,0,0,1.18,3.13,2.51,2.51,0,0,1,.61.82c.72,1.39.18,2.47-1.37,2.65a19.7,19.7,0,0,1-2.32,0,12.08,12.08,0,0,0,2.88,4.7,6.13,6.13,0,0,0,7.31,1.56c2.8-1.18,4.25-.16,4.63,2.85.18,1.45.07,2.58-1.48,3.15a1.05,1.05,0,0,0-.62.52c-.56,1.87-2.19,1.85-3.66,2.08a18.91,18.91,0,0,1-2.26.13c-.67,0-1.41-.16-1.64.8s-.56,1.87.32,2.48c3.89,2.67,4.09,6.81,4.25,10.85.23,5.69-1.11,11.17-2.74,16.58a55.35,55.35,0,0,1-12.49,22.24q-1,1.07-2,2c-1.29,1.21-1.29,1.2-.42,2.87a3.55,3.55,0,0,1,.3,2.4,9.85,9.85,0,0,1-1.59,3.54,25.65,25.65,0,0,1-6.39,6.38,105.71,105.71,0,0,1-17.38,10.11,28,28,0,0,1-6.27,2,15.73,15.73,0,0,1-3.48.28c-2.23-.06-4.08-.72-4.71-3.17a3.66,3.66,0,0,0-2,.34,53.83,53.83,0,0,1-23.63,1.79,5.07,5.07,0,0,0-1-.08,45.2,45.2,0,0,1-25.82-4.26c-.06,0-.14,0-.21,0l0,0a.78.78,0,0,0-.77-.41,52.61,52.61,0,0,1-5.82-4.11c-1.66-1.49-3.3-3-4.95-4.53-.85-1.53-2.5-2.29-3.53-3.64a132.19,132.19,0,0,0-9.44-10.75c-2.78-2.89-5.43-5.89-8.14-8.83a8,8,0,0,0-2.33-2,.48.48,0,0,0-.42-.37l0,0c-3.43-3.27-7.59-4.4-12.22-4.19a37.92,37.92,0,0,1-5.74.13,6.66,6.66,0,0,1-3.63-1.24c-1.13-.9-1.2-1.61-.29-2.76A26,26,0,0,1,349.21,251.48Zm84.5,37a.38.38,0,0,0-.37-.38,25,25,0,0,1-3.37-5.34,49.52,49.52,0,0,1-10.63,4.09,2.28,2.28,0,0,0-1.68.37.4.4,0,0,0-.38.05,5.69,5.69,0,0,0-1.84.15,66.27,66.27,0,0,1-9.43.78c-.43,0-1-.28-1.37.37a13.5,13.5,0,0,0,5.23,4.74c7.26,4.2,15.28,5.92,23.47,7.08l.79.09a.71.71,0,0,0,.81.19c3.37.66,6.68.17,10-.4a.67.67,0,0,0,.79-.21h.06c.72,0,1.66.25,1.94-.66a2.22,2.22,0,0,0-.89-2.18,2.55,2.55,0,0,0-.68-.46,54.94,54.94,0,0,1-11.58-7.41l0,0a.37.37,0,0,0-.38-.36l0-.05a.37.37,0,0,0-.37-.37Zm46.11-8.16a1.6,1.6,0,0,0,.88,1.19c.1.48.15,1,.92,1-.17-.46-.31-.88-.79-1.07a1.72,1.72,0,0,0-.77-1.3,2.33,2.33,0,0,0-.77-1.28,12.44,12.44,0,0,0-3.12-4.27A12,12,0,0,0,479,279.1,2,2,0,0,0,479.82,280.3Zm-2.14-11.83a3.06,3.06,0,0,0-.85-1.22l-1.4-2.39.11-.05,2.74,3.4a7.25,7.25,0,0,0-1.64-3.81c-1.42-1.89-1-1.79-3.56-.5-1.24.8-2.7,1.29-3.54,2.63-1.36.06-2.21,1.18-3.41,1.62-1.57.58-1.59.92-.67,2.41.44.69.91,1.37,1.4,2,2.36,3.18,4.6,6.44,6.75,9.77,1,1.54,2,3.08,3,4.61.18.26.32.64.77.48s.45-.62.42-1a3.16,3.16,0,0,0,.27-.2c.63.33,1.13.35.84-.56a4.53,4.53,0,0,0-.79-1.2c-2.53-3.67-5.08-7.33-7.6-11-1-1.39-1.85-2.83-2.77-4.25a4.75,4.75,0,0,1,1.39,1.4l9.35,13.3c.24.34.44.7.7,1s.45.82.94.4.05-.74-.17-1.06-.48-.67-.72-1l-9.38-13.46c1.51,1.4,1.51,1.4,2.71,1.73-1.05-1.73-2-3.27-2.94-4.8,2.2,2.71,4.14,5.63,6.52,8.35.19-.38.32-.53.29-.61-1.18-2.6-3.07-4.79-4.34-7.36,1,1.19,1.89,2.44,2.76,3.71s1.67,2.51,2.48,3.77,1.65,2.69,2.54,4,1.37,2.73,2.73,3.8c.08-.42.21-.67.14-.8-2.59-4.51-5.53-8.8-8.31-13.19l0,0c.92.07,1.11.93,1.5,1.5,2.05,3.06,4,6.17,6.07,9.25.27.42.37,1,1.08,1.09.38-.92-.18-1.56-.63-2.24-2.28-3.4-4.58-6.8-6.83-10.22a18.72,18.72,0,0,1-2.27-3.63c1.4.87,1.82,2.54,3,3.61a2.78,2.78,0,0,0,.77,1.14,3,3,0,0,0,.84,1.24,2.86,2.86,0,0,0,.83,1.23,31.19,31.19,0,0,0,3.5,5c-.38-2.17-1.74-3.78-2.93-5.48a3.16,3.16,0,0,0-.83-1.23A3.05,3.05,0,0,0,477.68,268.47Zm-.94,10c1.95,3.19,2.17,3.46,3.59,4.11a21.62,21.62,0,0,0-3.09-4.65c-1.83-3.06-2-3.3-3.49-3.94A20.11,20.11,0,0,0,476.74,278.51Zm-73-73.32a6.51,6.51,0,0,0,4.52.06,17.41,17.41,0,0,0,7-2.32h0c.74,0,1.45-.14,1.62-1.06.84.52,1.4,0,2.12-.58-4.54-7.43-9-14.89-13.76-22.14a5.49,5.49,0,0,1,1.85,1.89,108.51,108.51,0,0,1,8.1,11.87c1.37,2.38,2.68,4.79,4,7.19.22.38.35,1,1,.72s.3-.8.07-1.21c-1-1.85-2-3.74-3.19-5.53-1.87-3-3.86-5.84-5.76-8.78-.36-.56-1.1-1.07-.71-1.94.71.07,1,.61,1.28,1a107,107,0,0,1,9.22,14.12,9.84,9.84,0,0,0,.48.91c.14.23.32.47.66.32a.57.57,0,0,0,.3-.84c-.18-.38-.4-.73-.61-1.08a132.65,132.65,0,0,0-9.2-13.9c-1-1.31-2-2.61-3-3.92-.23-.31-.56-.67,0-1.07a5,5,0,0,1,1.94,1.74,101.8,101.8,0,0,1,11.25,16.22c.24.42.46.84.7,1.26s.59.42,1,.18c1-.56.55-1.21.22-1.9-2.38-5-5.87-9.27-9.47-13.43a76.2,76.2,0,0,0-5.79-5.86c-.57-.53-1.19-1.33-1.78,0-.06.13-.55,0-.77.14-.78.42-1.57.87-1.73,1.88-.8.08-1.15.71-1.57,1.27a20.39,20.39,0,0,0-5.15,15.61c-.15,2,.66,3.9.91,5.85a3,3,0,0,0,2.57,2.93,3.64,3.64,0,0,0,1.59.31Zm91.44,61.41c.27,0,.78.49.76-.06-.05-1.87.16-3.73.16-5.59,0-3.5-.73-6.93-1-10.74a11.49,11.49,0,0,0-1.55,5.68c0,1.14.15,2.29.09,3.42-.14,2.6-.07,5.13,1.56,7.34-.49-.21-.42-1-1.36-1.06.43,2.48,0,5,.39,7.43C495,270.94,496.38,269,495.16,266.6Zm-52.73-35.47v0a23.53,23.53,0,0,0,2.44,4.25c5.89,9.46,12,18.8,16.94,28.8a2.63,2.63,0,0,0,.82,1.16,10.14,10.14,0,0,0,.53,1.1c.72,1.18.73,1.18,1.83.45,1.71-1.15,3.37-2.38,5.14-3.43a6.44,6.44,0,0,0,2.86-4.05,9.49,9.49,0,0,0-1.89-8.89C463,239.88,455.2,229,446.64,218.71c-1.84-2.21-3.93-4.18-7-4.73-2.35-.41-4.45.23-6.63.9a2.75,2.75,0,0,0,.15.64q4.5,7.62,9,15.23A.32.32,0,0,0,442.43,231.13Zm7.36-22.2h0a2.8,2.8,0,0,0,.93,1.78,58.4,58.4,0,0,0,5.77,6.41c1.26,1.16,2.46,2.38,3.64,3.63,6.28,6.62,12.7,13.1,20.09,18.52a9.05,9.05,0,0,1,1.92,2,65.16,65.16,0,0,0,4.67,5.18,4.35,4.35,0,0,0-1.37-3.18c.37-2.63-1.66-3.67-3.29-4.94-4.81-3.77-9.63-7.5-14.43-11.27a3.17,3.17,0,0,1-1.31-1.39c4,3.11,7.89,6.15,11.8,9.15.49.38.86,1.14,1.7.83h0a6.65,6.65,0,0,0,3.82,2.86,10.19,10.19,0,0,0-3.35-5.7c.22-1,.15-1-1.22-1.41.28.6,1.05.8,1.28,1.47a1.89,1.89,0,0,1-.38-.16c-6.2-4.87-12.19-10-18.19-15.1-.67-.58,0-1-.09-1.55,5.38,4.56,10.71,9,16.28,13.18a4,4,0,0,0-1.7-2.14c-5.46-4.15-10.69-8.58-15.87-13.07-.69-.59-1.77-.63-2.17-1.45a13.5,13.5,0,0,0-2.29-2.59c-1.67-1.95-4-1.67-6.2-1.82C449.43,208.19,449.45,208.65,449.79,208.93Zm-9.9,74.61a3.27,3.27,0,0,0,.94,1.32,65,65,0,0,0,10.57,9.65,7.82,7.82,0,0,0,7.92.94,28.32,28.32,0,0,0,6.35-2,12.06,12.06,0,0,0,3.93-2.59,5.08,5.08,0,0,0,1.39-6.14,9.76,9.76,0,0,0-1.73-2.78c-2.15-2.58-4.27-5.19-6.17-8-.39-.56-.89-1.05-1.26-1.62-.57-.88-1.14-.95-2-.4a43.89,43.89,0,0,1-6.65,3.23,45,45,0,0,1-13,3.62c-1.11.1-2.25,0-3.73,0A26.61,26.61,0,0,0,439.89,283.54Zm58.79-83.47a33,33,0,0,0-.23,6,15,15,0,0,0,4.74,10.2c2.88,2.76,6.34,3.33,10.13,2.58a2.71,2.71,0,0,0,.92-.41c.86-.55.87-1,0-1.49a12.76,12.76,0,0,0-4.68-1.44c-5.08-.87-8.07-4.59-7.84-9.67a2.82,2.82,0,0,0-.29-2l-2.79-3.73c-.23-.92-.45-1.85-.68-2.77s-.45-1.2-1.5-1.18a2.19,2.19,0,0,1-1.92-3.35,12.11,12.11,0,0,1,.94-1.35,13.49,13.49,0,0,0,2.53-7.87,19.22,19.22,0,0,0-1.16-6.34c-1.33-4.05-3.22-7.72-7.44-9.55a3.68,3.68,0,0,0-2-.85c-5.16-1-11.7,3-13.09,8.07a8.59,8.59,0,0,0-.26,2.86,5.81,5.81,0,0,0,4.83,5.63c.8.17,1.64.18,2.45.31,1.26.21,2.29,1,2.25,2.05-.09,2.53-.17,5.1-2.2,7-2.42,2.32-5,4.29-8.54,4.51-.76,0-.92.41-.84,1.06a14.92,14.92,0,0,0,1.2,4.56,5,5,0,0,0,2.5,2.54c3.85,1.81,7.64,3.75,11.34,5.86a9.16,9.16,0,0,0,1.33.51c3.45,2.24,7.18,4,10.72,6.1a1.16,1.16,0,0,0,1.74-.36,1.36,1.36,0,0,0-.06-2,14.55,14.55,0,0,1-3.38-7.62C497,205.22,497,202.48,498.68,200.07Zm-94.17,92.06a3.56,3.56,0,0,0-.92-1.19c-1.48-2.21-2.89-4.45-4.2-6.77a12.61,12.61,0,0,0-1.92-3.11,46.54,46.54,0,0,0-5.9-8.38,172,172,0,0,0-14.42-13.51,32.45,32.45,0,0,0-7.4-4.42,3.17,3.17,0,0,0-1.38-.35c-3.65,0-7,1.29-10.72,2.57,6.13.92,8.6,2.13,12.93,6.13a75.05,75.05,0,0,1,7.38,7.75c5.23,6.37,10.92,12.33,16.68,18.21a27.08,27.08,0,0,0,6.63,5.15A33.32,33.32,0,0,0,411.9,299a9.19,9.19,0,0,0-2.92-3.36A34.08,34.08,0,0,1,404.51,292.13ZM500.25,199c.06,0,.18-.06.18-.07-.06-.27.15-.12.12.15s-.14.36-.36.35-.25-.16-.17-.27.2-.1.3-.14a6.93,6.93,0,0,1,.46-5c.32-.82.64-1.63.89-2.5,1-3.72,1.15-7.58,1.82-11.36a11.11,11.11,0,0,0-.2-4.7,33.58,33.58,0,0,0-3.71-9.13,14.07,14.07,0,0,0-3.84-4.52c-5.44-3.74-11.16-4.34-17.13-1.36a31.58,31.58,0,0,0-12.43,11.43,12.78,12.78,0,0,0-1.68,11.57,19.35,19.35,0,0,1,.55,2c.62,2.87,2.56,4.77,4.68,6.5.48-.26.08-.87.65-1.05a13.24,13.24,0,0,0,2.72,2.14c1.16.69,2.59,1.22,3.72.74a8.71,8.71,0,0,0,4.54-4.58c-1,.38-1.57.64-2.2.86-2.43.83-4.83.72-6.74-1.08-3.51-3.31-5.46-7.31-4.11-12.22,1.8-6.55,6.36-10.38,12.75-12.21a5.82,5.82,0,0,1,2.24-.16c5,.62,9.26,2.54,12.26,6.7,2.48,3.41,3.41,7.38,3.75,11.51a14.38,14.38,0,0,1-1.18,6.79c-.56,1.35-1.51,2.47-1.95,3.86,3.58-2.39,4-6.48,5.47-10.12.31,3.33.17,6.48-1.48,9.41a11.32,11.32,0,0,0-.72,1.92A4.28,4.28,0,0,0,500.25,199ZM458.9,268.26a10.15,10.15,0,0,0-1.71-5.79c-5-8.27-10-16.49-14.79-24.89Q438.26,230.25,434,223c-.74-1.28-1.46-2.64-3.11-3a22,22,0,0,0-3-2.66,2.46,2.46,0,0,0-1.67-.72c-2.25.09-4.51.22-6.77.34a1.14,1.14,0,0,0-1.16,1.37,4.16,4.16,0,0,0,.28,1.4c1.16,2.62,2.36,5.22,3.54,7.83.61,1.88,1.26,3.76,1.83,5.66,2.54,8.39,5.17,16.77,7.55,25.21,1.67,5.92,3.45,11.85,4,18,.09.95.61,1.08,1.39,1a31.14,31.14,0,0,0,11.32-2.58,56.26,56.26,0,0,0,9.17-3.76C458.7,270.5,459.29,269.69,458.9,268.26ZM418.52,285.2a29.18,29.18,0,0,0,10.7-4.26c.28.06.4,0,.31-.32a10.65,10.65,0,0,0-.43-2.86,16.46,16.46,0,0,0-.54-3.43c-2.49-10.54-4.54-21.16-6.4-31.81a109.88,109.88,0,0,0-5.06-18.18c-.3-.84-.32-2-1.44-2.32a3.31,3.31,0,0,0-.74-2.08c-1.12-1.76-1.11-1.75-3.11-1.45-3.46.52-6.89,1.31-10.55,1,.48,1.45,1.49,2.34,2.14,3.45a9.22,9.22,0,0,1,1.16,3.68,28,28,0,0,0-.38,7,70.83,70.83,0,0,1,.08,9.88c-.1,2.27-.16,4.53-.25,6.8a2.78,2.78,0,0,0,.58,2.1A12.14,12.14,0,0,1,407,258a37.68,37.68,0,0,1-.35,13.31,8.73,8.73,0,0,1-2.39,5.13,1.6,1.6,0,0,0-.5,1.29c.11,2.82.17,5.63.33,8.44.08,1.35.48,1.55,1.94,1.32,2.44-.38,4.89-.71,7.32-1.15A19.66,19.66,0,0,0,418.52,285.2Zm-24.7-73.95a6.35,6.35,0,0,0-.17.95c.25,2.75,2.33,4.66,5.41,5a20.76,20.76,0,0,0,7.71-1,79.94,79.94,0,0,0,22.32-9.78,10.6,10.6,0,0,0,3.72-4c.24-.43.24-1.06.89-1.26.85-.26.48-.82.2-1.25-.42-.65-.7-.33-1,.14a3.26,3.26,0,0,1-1,.63c-2.15,1.19-4.42,2.23-6.45,3.62a67.63,67.63,0,0,1-16.3,7.72,33.16,33.16,0,0,1-7.19,1.71C399,214,396.08,214.23,393.82,211.25Zm62.64,88a4.29,4.29,0,0,0,4.72,2.42c6.62-.62,12.5-2.95,17.2-7.83.52-.54,1.12-1.06.69-1.95a2.08,2.08,0,0,0-2.29-1.36,7.86,7.86,0,0,0-3.7,1.08,46.71,46.71,0,0,1-10.55,5C460.49,297.38,458.51,298.32,456.46,299.21ZM365.51,249a3.31,3.31,0,0,0-3.91-.35c-4.37,2-8.17,5.4-13.29,5.71a1.58,1.58,0,0,0-1.37,1.59c0,.9.77,1.21,1.59,1.27a9.15,9.15,0,0,0,2.66-.21,31.12,31.12,0,0,0,12.8-6.3A4.1,4.1,0,0,0,365.51,249Zm30.11-38.3c1.25,1.71,3.06,1.59,4.81,1.4a34.07,34.07,0,0,0,6.21-1.35,94.77,94.77,0,0,0,15.69-6.61c.91-.46,1.89-.82,2.77-1.34a27.1,27.1,0,0,0,2.49-1.8,16.77,16.77,0,0,1,2.59-2c.86-.42,1.15-1.54,2.24-1.59.19,0,.14-.31.12-.52-.05-.38-.47-.46-.54-.36-.49.69-1.33.41-2,.86-8.49,6.1-17.47,11.23-27.81,13.59C400,211.46,397.8,211.73,395.62,210.67Zm3.75-35.7c-1-4.28-1.94-8.41-2.89-12.54a81.48,81.48,0,0,0,.35,8.43c.09,1.16.37,2.3.51,3.45a2,2,0,0,0,2,1.88c1.39.14,2.79.19,4.2.34A8.23,8.23,0,0,0,399.37,175Zm3.13-3c.61-.67.8-1.46,1.45-1.7,1.14-.43.79-1,.34-1.7-1.87-3-3.87-6-5.5-9.12-.07-.15-.19-.34-.53,0C399.75,163.53,400.47,167.92,402.5,172Zm1,.27c.17.5.57.65.9.87.51.33,1.06.6,1.56,1s1,.07,1.43-.29,0-.73-.17-1.06-.38-.56-.58-.84c-1.13-1.62-1.31-1.64-2.72-.26A4.24,4.24,0,0,0,403.52,172.28ZM514.19,215c.44.74,1.28.93,1.93,1.36.3.19.68-.15.79-.44s-.27-.35-.49-.43C515.7,215.25,515.05,214.7,514.19,215Zm-39.7,59.75c-.75-2.32-1.34-3.06-2.91-3.6A8.43,8.43,0,0,0,474.49,274.75Zm5.62,7.56c-.47.26-.35.48-.27.64.29.52.48,1.15,1.15,1.33a.38.38,0,0,0,.32-.16c.17-.71-.42-1.06-.76-1.53C480.44,282.44,480.21,282.38,480.11,282.31Z" transform="translate(-41.75 -124.74)"/><path class="cls-1" d="M274.1,227.83a6.26,6.26,0,0,0-.15,2.24q0,23.43,0,46.87a6.91,6.91,0,0,0,0,1.44c.5,2.39-.77,3.84-2.53,5.15a54.9,54.9,0,0,1-11.26,6.32,5,5,0,0,1-3.8-.2,68.07,68.07,0,0,0-9.75-3.84c-3.78-1.3-7.62-1.71-11.4.2a8.15,8.15,0,0,1-2.12.76c-.8.16-1.82,1-2.4,0s.81-1.26,1.1-2a1.72,1.72,0,0,0,.94-.37,49.94,49.94,0,0,1,15.21-8,5,5,0,0,0,.73-.37c2.59-.65,5.16-1.42,7.88-1.13.68.07,1.05-.2,1-.92,0-.34,0-.69,0-1q0-17.7,0-35.42c0-.51.22-1.09-.26-1.54a4.23,4.23,0,0,0-1.8,1,69,69,0,0,1-11.08,5.77c-4.22,1.64-8.71,1.62-13.11,2.17-.77.09-1-.43-1-1,0-1,.06-1.91.06-2.87,0-12.22,0-24.44,0-36.65a5.26,5.26,0,0,1,1.88-4.33,36.22,36.22,0,0,0,3-2.84,44.88,44.88,0,0,1,6.14-5.47,20.13,20.13,0,0,0,3.24-2.5l0,0a2.57,2.57,0,0,0,1.27-.9c2.52-1.38,4.82-3.13,7.45-4.33a37.84,37.84,0,0,1,4.17-1.74,2.24,2.24,0,0,1,2.58.68c1.11,1.2,2.41,2.24,3.55,3.43a1.36,1.36,0,0,0,2.22.13,43.78,43.78,0,0,1,9.66-5.84,17.35,17.35,0,0,1,3.28-1.18c.62-.14,1.09-.12,1.28.6a66,66,0,0,1-4.16,5.81.36.36,0,0,0-.36.37l0,.05a.36.36,0,0,0-.36.36l-.05.05a.36.36,0,0,0-.36.36l0,.05c-2.34,1.91-4.78,3.67-7.15,5.53A52.71,52.71,0,0,1,254,200.4c-1.47.68-2.17-.61-3.1-1.31a15.63,15.63,0,0,1-2.18,1.63,3.13,3.13,0,0,0-1.73,4.05,4.31,4.31,0,0,0-.13.8q0,13.56,0,27.12a6.21,6.21,0,0,0,.09,1.22c.1.49.49.6,1,.55a6.92,6.92,0,0,0,6-1.05,18.07,18.07,0,0,1,2.32-1.69,2.65,2.65,0,0,0,1.41-2.67c-.05-6.51,0-13-.06-19.53a5.32,5.32,0,0,1,1.56-4.43,59.54,59.54,0,0,1,13.08-7.26c1.7,0,1.7,0,1.73,1.61,0,.41,0,.83,0,1.24,0,7.89,0,15.78,0,23.67A16.21,16.21,0,0,0,274.1,227.83Z" transform="translate(-41.75 -124.74)"/><path class="cls-1" d="M115.57,329.14l-.49.2-.79.18c-1.76.35-1.9.25-2.09-1.46a19.41,19.41,0,0,0-.33-2.86c-.7-2.62-.28-4.81,2.14-6.36a8.89,8.89,0,0,0,2.41-1.51A75.56,75.56,0,0,1,131.56,310c4-1.44,7.82-3.3,11.71-5q30.49-13.37,61-26.77c1.38-.6,2.75-1.22,4.1-1.9,2.47-1.26,5.21-1.67,7.81-2.51.4-.13.83-.23,1.12.18a.71.71,0,0,1-.18.93c-1.22,1.32-1.31,3-1.38,4.63a5,5,0,0,1-2.13,4,54.81,54.81,0,0,1-12.2,7.17,5.66,5.66,0,0,1-3.4.57c-.21-1.48.41-2.94.24-4.64-3.22,1.44-6.33,2.75-9.33,4.33-3.91,1.48-7.62,3.41-11.43,5.11-2.57,1.13-5.11,2.33-7.67,3.49-.66.3-1.13.63-1.12,1.5.07,6.51.09,13,.13,19.55q-.25,7.61,0,15.21c0,4.5-.1,9-.09,13.51,0,3.34-.15,6.69.1,10q-.21,11.1,0,22.2a60,60,0,0,0-.11,6.57c0,5.2-.06,10.41.07,15.61a4.34,4.34,0,0,1-1.83,3.86,43.56,43.56,0,0,1-14.51,7.9,1.22,1.22,0,0,0-.35.2c-.88-.1-1.07-.67-1.05-1.46.05-1.58.07-3.16.07-4.74v-98c0-1.2-.15-2.43,1-3.38l-.33-.26-8.64,4.1c-4.26,1.64-8.32,3.75-12.5,5.59-.55.24-.94.58-.79,1.24.31,1.32-.59,2-1.42,2.72a48.63,48.63,0,0,1-11.31,6.94l-1.49.66S115.57,329.14,115.57,329.14Z" transform="translate(-41.75 -124.74)"/><path class="cls-1" d="M132.32,346.63c.19-.73.37-1.46.59-2.18.83-2.7,2.35-4.71,5.47-5.38a9.85,9.85,0,0,0,.39,4.19l5.17-4.94c1.81-1.27,3.16-3.15,5.18-4.2a3.39,3.39,0,0,1,.2,1.74c0,4.17,0,8.35,0,12.53a4.22,4.22,0,0,1-1.06,3,38.53,38.53,0,0,0-5.17,7.12.39.39,0,0,0-.29.45.31.31,0,0,0-.15.31,44.05,44.05,0,0,0-6.13,14c2.43-1.6,5-2.81,7.4-4.36.39,0,.8-.23,1.22.2-.67,1.48-2,2.6-2.47,4.24-2.29,3.57-4.12,7.4-6.15,11.11a16.1,16.1,0,0,0-1.68,11.08c1.16,6.26,3.39,11.95,7.84,16.63a21.59,21.59,0,0,0,7.81,5.4,34.89,34.89,0,0,0,12.82,4,38.37,38.37,0,0,0,7,.77c.44,0,.95.2,1.31-.27.54-1.28,0-2.56-.08-3.82a2.6,2.6,0,0,1,1.56-2.94c2.48-1.29,2.42-1.37,4.44.66a25.2,25.2,0,0,1,3,3.94,2.39,2.39,0,0,0,2.93,1.14,83.07,83.07,0,0,0,12.91-4.08.32.32,0,0,0,.38-.29v.06a38,38,0,0,0,6.28-2.54,3.29,3.29,0,0,0,1.42-1.44,28.4,28.4,0,0,0,3.11-6.93c.13-.43.46-.88,0-1.32-1.46.4-2.9.83-4.36,1.2s-2.74,1.44-4.52,1l.63-1.07a38.14,38.14,0,0,1,14.37-7.25c1.61-.39,2.91-1.52,4.43-2.15,1.16-.48,2.28-1.18,3.6-1,.06.18.11.29.09.31-1.68,1.51-1.9,3.7-2.63,5.65a34.4,34.4,0,0,1-5.17,9.06,104.6,104.6,0,0,1-6.79,8.51c-5.55,5.79-11.67,10.79-19.2,13.83a58,58,0,0,1-28.65,1.89,50,50,0,0,1-25.68-12.13,56.64,56.64,0,0,0-8.85-6.35,14.36,14.36,0,0,0-4.54-1.88,4.19,4.19,0,0,1-2.2-1.29c1.89-2.14,4.53-2.36,7-2.8a3.13,3.13,0,0,0,0-.64c-.21-.58-.41-1.16-.65-1.73a43.71,43.71,0,0,1-3-14,67,67,0,0,1,8.32-37.22,4.55,4.55,0,0,0,.7-1.48C130.8,352,131.92,349.42,132.32,346.63Z" transform="translate(-41.75 -124.74)"/><path class="cls-1" d="M339.11,275.31c.89-3.84,2-7.64,2.58-11.54.39-1.42.79-2.85,1.32-4.75.49,1.77.84,3.05,1.19,4.33l0,.17.17.08.12.51a91.23,91.23,0,0,0,3.72,11.65,35,35,0,0,0,9.5,14.52,15.49,15.49,0,0,0,9.46,4.37c3.29.22,6.34-.76,9.35-1.8a21.5,21.5,0,0,1,4.14-1.12,1.66,1.66,0,0,0,1.11-.43l.89-.15c.4-.06.74-.41,1.36-.14a6.12,6.12,0,0,1-1.61,1.37c-2.95,2.19-6.17,4-8.83,6.61a36,36,0,0,0-7.05,10,98.35,98.35,0,0,0-5.81,15.94c-1.18,3.9-2.17,7.86-3.27,11.78-1.32,4.67-2.43,9.38-3.52,14.09-.65,2.78-1.21,5.62-1.83,8.41-.82,3.66-1.49,7.35-2.41,11-.66,2.58-1,5.24-1.46,7.86-.78,4.24-1.6,8.46-2.32,12.71A156.22,156.22,0,0,0,344.09,409c-.19,3.7-.49,7.39-.75,11.13a2.39,2.39,0,0,1-.35-1.62c-.26-4.11-.76-8.21-.65-12.33a63.12,63.12,0,0,0-.64-8.81,10,10,0,0,0-1.09-3.72,11.86,11.86,0,0,1-.79-2.85c-.11-.45-.05-1-.4-1.35a5.27,5.27,0,0,0-.25-2.46.31.31,0,0,0-.18-.45v0a.64.64,0,0,0-.35-.67c-.38-3.62-1.69-7-2.59-10.52-.63-2.42-1.25-4.86-2-7.26s-1.66-5-2.42-7.56c-.86-2.92-1.91-5.8-3-8.65-1.84-4.89-3.69-9.79-6.6-14.2-3.14-4.75-7-6.51-12.63-4.32-2.84,1.12-5.6,2.46-8.39,3.7a1.31,1.31,0,0,0-.78.08c-.21.05-.29.11,0,.07a.35.35,0,0,0,.18-.06,8.67,8.67,0,0,1,.89-.83,94.21,94.21,0,0,0,8.06-6.29,79.63,79.63,0,0,0,9.79-9.2A70.06,70.06,0,0,0,327.45,308c2.44-4.56,4.34-9.37,6.36-14.12a38.54,38.54,0,0,0,1.16-3.69c.52-.71.15-1.61.49-2.37C337.3,283.82,338.12,279.54,339.11,275.31ZM341.42,312c.12-2.87,1-5.65,1.07-8.55a14.71,14.71,0,0,0-.13-4c-2.84,6.2-5.77,12.3-9.26,18.49,2.53-.8,4.09-2.68,6.22-3.51a2.72,2.72,0,0,0,.73.31c1.7.18,1.82.33,2.4,1.86.22.56.06,1.32.82,2,.44-2.93.57-5.74,3.17-7.29a.53.53,0,0,0-.61-.36c-2.06-.06-2.1-.1-2.39-2.16-.05-.37.11-.87-.56-.87C342.45,309.26,342.7,310.9,341.42,312Zm-18.94,12.15c.18,0,.27-.06.3-.23,1.55-.86,3.06-1.79,4.66-2.54a12.6,12.6,0,0,0,6.16-5.84c2.74-5.22,5.42-10.48,7.79-15.87.54-1.21,1.37-2.36,1.36-3.82-.06-4.79-.06-9.58-.08-14.37a119.68,119.68,0,0,0-.09-16.4c-.93,2.37-1.07,4.89-1.61,7.32a30.82,30.82,0,0,0-1.13,5.38c-.43,1.71-.82,3.43-1.3,5.13q-1.38,4.89-3,9.71c-.75,2.18-1.79,4.25-2.38,6.48-2.22,4.37-4.06,8.92-6.59,13.13a65.71,65.71,0,0,1-8.1,11.24c-1.82,1.94-3.91,3.6-5.42,5.93l9-5.08Zm49.6-25.91q-8.28,4.47-16.57,8.94a2.8,2.8,0,0,0-1.21,1.36c-1.25,2.64-2.59,5.25-3.73,7.95-1.79,4.2-3.37,8.49-5.32,12.63a11.13,11.13,0,0,0-1.37,6.7,12.16,12.16,0,0,1,0,2.26c-.09,15.65-.15,31.3,0,46.95a3.2,3.2,0,0,0,.25,1.69c.78-1.5.39-2.92.68-4.24.72-3.2,1.32-6.43,2-9.64,1.17-5.69,2.29-11.39,3.55-17.06q1.49-6.71,3.26-13.33,1.82-6.82,3.8-13.6a151.94,151.94,0,0,1,5.7-16.39A50.12,50.12,0,0,1,372.08,298.21ZM342.3,329.3l.43-.28c0-.95,0-1.91,0-2.87a35.61,35.61,0,0,0-.42-6.76c-.51-2.51-2.2-3.54-4.45-2.47a19.49,19.49,0,0,0-4.63,2.75C336.86,322.41,339.57,325.87,342.3,329.3Zm1.54-31.71c-.06,3.92-.15,7.51.14,11.09a1.78,1.78,0,0,0,1.48,1.53,4.31,4.31,0,0,0,2.22-.17,31.76,31.76,0,0,0,5.78-2.82A59.61,59.61,0,0,1,343.84,297.59Z" transform="translate(-41.75 -124.74)"/><path class="cls-1" d="M200,259.14q-6.31,4.16-12.95,7.8c-2.51,1.37-5.06,2.63-7.69,3.76a.49.49,0,0,0-.37.06l-1.22,0c-.43-.19-1.54,0-1.09-.72,1.15-1.88.7-3.87.71-5.8q.07-21.37,0-42.77a2.79,2.79,0,0,1,1.69-2.91,27.4,27.4,0,0,0,9.32-8.23,7.47,7.47,0,0,0,1.41-2.49,6.09,6.09,0,0,1,2.08-3.34,54.16,54.16,0,0,1,9.64-5.86c.62-.28,1.26-.53,1.88-.82a4.45,4.45,0,0,1,4.83.37,35.37,35.37,0,0,0,4.29,2.43c1.45.77,1.46.74,2.62-.38a32.77,32.77,0,0,1,10-7.12,5,5,0,0,1,2.91-.67c-2.46,2.94-2.67,6.39-2.77,9.86q0,7.2,0,14.41c0,9.47,0,18.95.07,28.43a4.84,4.84,0,0,1-1.44,4.05.78.78,0,0,0-.53.5.24.24,0,0,0-.26.22,104.7,104.7,0,0,1-9.54,5.63.71.71,0,0,0-.65.31l-.13.05c-.85.24-1.69.56-2.56.72-1,.2-1.29-.07-1.39-1.18-.08-.85.28-1.75-.21-2.78Zm0-7.69c2.56-1.42,5.09-2.88,7.67-4.27a2.11,2.11,0,0,0,1.22-2.12q-.06-15.33,0-30.66c0-1.45.1-1.71-1.65-1.81-3-.18-6.06-.35-8.87-1.54a3,3,0,0,0-3.51.55,2.44,2.44,0,0,0-1.07,2.24c.1,1.09.09,2.19.12,3.29,0,.34-.09.68-.09,1q0,18.22,0,36.46c0,.31-.13.7.49.94C196.05,254,198.17,252.92,200.05,251.45Z" transform="translate(-41.75 -124.74)"/><path class="cls-1" d="M246.64,361.93A178.72,178.72,0,0,1,230.5,371l-2,.76-1.62-.12c0-14.21,0-28.43-.14-42.64a3.32,3.32,0,0,1,1.93-3.42,20,20,0,0,0,8.09-8,19.68,19.68,0,0,1,3.3-4.42c2-1.12,3.85-2.62,6-3.62.49-.23,1-.52,1.45-.76,4.68-2.33,4.68-2.33,9.24.22,3,1.68,3,1.68,5.36-.71a20.15,20.15,0,0,1,8.91-5.2c-.18,2.56-.34,5.07-.55,7.58-.16,1.91-.27,3.82-.26,5.74.06,11.1.09,22.21.18,33.32a3.31,3.31,0,0,1-1.36,2.81,42.22,42.22,0,0,1-8,5c-.68.33-1.34.68-2,1s-1.41.51-2.14.67c-1.18.25-1.44,0-1.52-1.18a4.3,4.3,0,0,0-.25-2.23Zm-.78-7.46c1.49-.91,3.2-1.39,4.54-2.59a30.61,30.61,0,0,1,3.56-2.77,2.82,2.82,0,0,0,1.38-2.71c-.09-3.49,0-7,0-10.48,0-4.65,0-9.3,0-14,0-.86-.1-1.33-1.19-1.41-3.2-.23-6.43-.43-9.45-1.67a1,1,0,0,0-1,.05c-1.2.79-2.45,1.5-2.1,3.33a19.44,19.44,0,0,1,.14,2.86,8.8,8.8,0,0,0-.1,1q0,14.79,0,29.58c0,.31-.14.7.38.94A23.87,23.87,0,0,0,245.86,354.47Z" transform="translate(-41.75 -124.74)"/><path class="cls-1" d="M78.45,330.45c0-.27-.08-.57.17-.76,2.18-1.68,4.38-3.31,7.29-3.47,1-.06,2-.21,3.07-.23,2.24,0,3.48.87,4.33,3a9.64,9.64,0,0,1-2.44,10.58,29,29,0,0,1-11.31,6.51,2.69,2.69,0,0,0-1.13.43h0a38.93,38.93,0,0,1-7.4,0c-.4-.11-.79-.24-1.19-.32C58.11,343.83,50,337,45.35,326.07c-2.45-5.82-3.3-12-3.55-18.27a64.81,64.81,0,0,1,4.93-26.91,6,6,0,0,0,.7-2.34c-.08-3.58.47-7.11.63-10.67.24-1.26.5-2.52.71-3.78a3.34,3.34,0,0,1,2-2.8,24,24,0,0,1,2.52-1.3,2.61,2.61,0,0,1,.92,1.76,9.31,9.31,0,0,0,1,3.21c5.09-7,10.49-13.53,17.41-19.27v2.37c0,3.92-.06,7.83,0,11.74a4.89,4.89,0,0,1-1.36,3.68A48.18,48.18,0,0,0,64.84,272a5.36,5.36,0,0,0-1.35,1.78,70.16,70.16,0,0,0-5.55,10.54A54.4,54.4,0,0,0,53.48,309c0,.65.16,1.29.29,2.34A6.19,6.19,0,0,0,55,308.77a4.58,4.58,0,0,1,2.91-3.43c.73-.31,1.46-1.16,2.23-.57s.12,1.41,0,2.12a40.28,40.28,0,0,0-.55,10.85,5.13,5.13,0,0,0,.12,2.1,46.58,46.58,0,0,0,1.33,9.1,4,4,0,0,0,.9,1.81,38.81,38.81,0,0,0,8.43,7.43,22.91,22.91,0,0,0,6.43,2.55,23.56,23.56,0,0,0,6,1.18c2.26.24,2.92-.21,3.67-2.29.46-1.3.31-1.81-.9-2.56-.64-.4-1.36-.69-2.18-1.09l1.35-1.24a6,6,0,0,0,.72-.36c1.34-.9,1.39-1.11.61-2.42-1.11-1.85-2.73-2.29-5.58-1.52Z" transform="translate(-41.75 -124.74)"/><path class="cls-1" d="M193.48,330.92c2.82-1.54,5.5-3.32,8.43-4.66a34.06,34.06,0,0,1,6-2.22,7.26,7.26,0,0,1,7.18,1.89,21.89,21.89,0,0,1,3.83,5.53,34.78,34.78,0,0,1,1,4.55,15.5,15.5,0,0,1-1.74,7.6,33.93,33.93,0,0,1-6.17,5.68c-5.33,4.1-11,7.65-16.74,11.2-1.79,1.12-3,2.3-2.25,4.57a5.43,5.43,0,0,1,.08.82c.59,4.11,1.66,8,4.42,11.29a10.34,10.34,0,0,0,3.76,3.7c1.26.79,1.34.76,2-.52a22.3,22.3,0,0,0,2.39-6.75,5,5,0,0,1,.94-2.21,48.37,48.37,0,0,1,13-7c.68,0,1.26.14,1.16,1a15.55,15.55,0,0,1-.35,1.78,47,47,0,0,1-2.69,7c-3.75,5.7-9.44,9-15.14,12.34-1.36.79-2.78,1.48-4.17,2.22-1.29.45-2.56.95-3.87,1.36a9.59,9.59,0,0,1-10.65-2.87,22.13,22.13,0,0,1-5.2-9.9A48.39,48.39,0,0,1,177.56,366a54.13,54.13,0,0,1,2.87-18.41A29.45,29.45,0,0,1,190.92,333C191.8,332.31,192.63,331.6,193.48,330.92Zm-.79,26.76c-.12.23-.06.46.17.48a.57.57,0,0,0,.62-.41,1,1,0,0,0,.84-.85l0,0a36.11,36.11,0,0,0,7.33-4.63,7.43,7.43,0,0,0,2.77-4.18A14.36,14.36,0,0,0,199.81,334c-1.13-.9-1.18-.93-1.92.43a32.65,32.65,0,0,0-3.48,9.17,41,41,0,0,0-1.71,13.26Z" transform="translate(-41.75 -124.74)"/><path class="cls-1" d="M333.24,199.85a44.12,44.12,0,0,1,11.1-5.94c2.23-.84,4.38-1.85,6.57-2.78.91.08,1.79-.67,2.83-.08-.34,1.06-1.39,1.46-2,2.21A13.93,13.93,0,0,0,349,195a18.43,18.43,0,0,0,2.71,2.28l.1.09a.25.25,0,0,0,.28.26,7.58,7.58,0,0,0,3.44,2.17c1.56.64,1.63.63,2.38-.83,2.92-5.65,2.61-11.36.22-17.08-.41-1-1-1.08-2-.77-1.89.62-3.8,1.16-5.74,1.6a55.73,55.73,0,0,0-8.7,2.39,6.1,6.1,0,0,1-1.19.3c-.72.14-1.12-.09-1.31-.88a26.22,26.22,0,0,1-1-8.54c.45-4.78.95-9.55,1.81-14.28A13.07,13.07,0,0,1,343,155a50,50,0,0,1,9.05-5.24c1.39-.59,2.79-1.13,4.22-1.59a13.56,13.56,0,0,1,10.93.95,26.37,26.37,0,0,1,8.84,7.23c1.06,1.38,1,1.78-.36,2.85a37.17,37.17,0,0,1-6.76,3.89l-2,1c-.21,0-.36.06-.37.3l0-.07a14.51,14.51,0,0,0-3,1.24c-1.68.72-3.33,1.73-5.41.88.69-1.6,2.36-1.95,3.41-3.11a20.83,20.83,0,0,0-7.18-6,12.69,12.69,0,0,0-.68,4.11c-.41,3.33-1,6.64-.76,10a10.89,10.89,0,0,0,.43,4,1.25,1.25,0,0,0,1.63,1.1c1.76-.28,3.52-.55,5.26-.9a61.93,61.93,0,0,0,7.65-2.34c3.38-1.17,3.76-1.09,5.07,2.25,2.63,6.75,2.27,13.27-2,19.34a27.42,27.42,0,0,1-9.84,8.24c-2,1.06-4.05,2-6.07,3a43.9,43.9,0,0,1-5.48,1.69,13.38,13.38,0,0,1-10.73-2.18c-1.82-1.32-3.41-2.94-5.13-4.41C333.19,200.87,332.94,200.45,333.24,199.85Z" transform="translate(-41.75 -124.74)"/><path class="cls-1" d="M304.2,210.56a34.76,34.76,0,0,1,11.8-6,2.62,2.62,0,0,1,.4-.11c1.92-.42,2.33,0,1.77,1.8A21.6,21.6,0,0,1,308.54,219c-2.87,1.73-5.85,3.26-8.82,4.81l-.49.26a1.87,1.87,0,0,0-1.07.35h.06l-.5.22c-1.69.39-3.19,1.38-4.94,1.56h-4.53a11.21,11.21,0,0,1-5.67-4.22,19.06,19.06,0,0,1-3.81-8.78c-1.36-9.9-.58-19.56,3.69-28.75a27.73,27.73,0,0,1,5.05-7.67c.66-.69,1.75-.86,2.11-1.85.83,0,1.3-.68,1.89-1.1a50.66,50.66,0,0,1,13.93-6.82,11.25,11.25,0,0,1,6.24-.52l2.52,1.59a25.46,25.46,0,0,1,2.86,3.69,18.85,18.85,0,0,1,1.77,7.06c0,.2-.12.4-.14.6-.35,4-2.58,6.77-5.79,9a188.59,188.59,0,0,1-17.34,10.23c-3.19,1.74-3.2,1.75-2.88,5.33.35,3.87,1.27,7.55,3.78,10.66a9.81,9.81,0,0,0,3.49,3.66c.65.44,1.09.38,1.47-.34C302.67,215.64,304,213.3,304.2,210.56Zm-9.52-26.62c-1.57,4.11-1.94,8.4-2.16,13.09a15.93,15.93,0,0,0,2.77-1.68,47.31,47.31,0,0,0,6.14-3.62,5.7,5.7,0,0,0,2-2.31c2.32-4.86.34-11.93-4.31-15.09A26.78,26.78,0,0,0,294.68,183.94Z" transform="translate(-41.75 -124.74)"/><path class="cls-1" d="M189.74,166.48a57,57,0,0,1,10-5.59c.77-.3,1.51-.66,2.3-.89a42.27,42.27,0,0,0,8.71-3.62,14.17,14.17,0,0,1,3.26-1.25c.34-.09.69-.17.91.2s-.05.66-.25.92a11.17,11.17,0,0,1-2.09,2,42.46,42.46,0,0,1-10.14,5.83,3.53,3.53,0,0,0-2.42,3.1,52.25,52.25,0,0,1-2,8,23.63,23.63,0,0,1-8.38,11.69,64.71,64.71,0,0,1-12.34,7.36c-.89.18-1.78.67-2.8,0a18.35,18.35,0,0,1,4.26-3.63,9.89,9.89,0,0,0,3.07-3.27,22.67,22.67,0,0,0,2.18-4.65,64.67,64.67,0,0,0,2.43-10C186.88,170.18,187.67,168,189.74,166.48Z" transform="translate(-41.75 -124.74)"/><path class="cls-1" d="M144,199.45c1.77-.69,3.24-2,5.38-2.54v2.54c0,3,0,5.9,0,8.85a2,2,0,0,1-1.2,2.14,8.17,8.17,0,0,0-1,.65c-2.28,1.54-2.3.75-1.16,3.83.35,1,.8,1.86,1.24,2.88-1.49.72-2.58,2.13-4.39,2a21.91,21.91,0,0,0-5.45-1.79c-1.9-.46-3.09.93-4.52,1.72l-.39.13a4.39,4.39,0,0,1-.25-2.21c0-3.6,0-7.21-.06-10.82.68-.45,1.35-.91,2-1.34,3-1.86,6.1-3.56,9-5.63l.42-.19A.32.32,0,0,0,144,199.45Z" transform="translate(-41.75 -124.74)"/><path class="cls-1" d="M104.4,218.43l.42-.16a.31.31,0,0,0,.39-.26c.66-.18,1.41-.54,1.31.71-.06.74-.09,1.49-.15,2.41,1.71-.35,2.84-1.68,4.62-2.16v3c0,2.74-.08,5.48,0,8.21a2.93,2.93,0,0,1-1.67,3.12,30.55,30.55,0,0,0-5,3.25c-3,1.62-5.8,3.71-8.68,5.6-.6.4-1.1,1-1.94,1,0-4,0-8.08.09-12.12,0-.67-.23-1.48.5-1.88,2-1.12,2.87-3.25,4.3-4.87a3.54,3.54,0,0,0,1.4-1.42A12.17,12.17,0,0,1,104.4,218.43Z" transform="translate(-41.75 -124.74)"/><path class="cls-1" d="M334.8,159a35.22,35.22,0,0,1-4.59,13,38.33,38.33,0,0,1-5.2,3.25,8.09,8.09,0,0,1-2.91.94c0-1.09.67-1.91,1.1-2.82a29.62,29.62,0,0,0,2.67-8.35,5.13,5.13,0,0,0-.21-3c-2.29.8-4.15,2.38-6.76,2.33.81-1.83,1.17-3.65,2.47-5a30.17,30.17,0,0,1,5.76-3.79c.67-.32,1.34-.66,2-.92,3.33-1.24,4.85-.34,5.4,3.17C334.63,158.23,334.72,158.63,334.8,159Z" transform="translate(-41.75 -124.74)"/><path class="cls-1" d="M175.38,318.15a2.14,2.14,0,0,1,.87-1.34,24.45,24.45,0,0,1,6.36-3.67c1.18-.46,1.35-.4,1.78.86a13.76,13.76,0,0,1-.83,11.68,8.61,8.61,0,0,1-2.49,2.68,29.58,29.58,0,0,1-6.25,3.47c-.32-.08-.69,0-1-.36a8.87,8.87,0,0,0,2.47-5.37c-2.11,1.32-3.56,3.07-5.77,4.34,0-1.83-.05-3.32,0-4.8s-.55-2.95.31-4,2.48-1,3.77-1.42C176.06,319.77,176.07,319.8,175.38,318.15Z" transform="translate(-41.75 -124.74)"/><path class="cls-1" d="M406.93,184.59a4,4,0,0,1,.72.7,123.83,123.83,0,0,1,9.23,16.64q-4.53-8-9.07-16C407.54,185.48,407.23,185,406.93,184.59Z" transform="translate(-41.75 -124.74)"/><path class="cls-1" d="M479.93,235.69c.37,0,.49-.29.27-.52-.57-.58-1.21-1.09-1.82-1.63a49.79,49.79,0,0,1-4.2-3.6l-.05.05c2.43,1.36,4.28,3.46,6.48,5.1-.21.3-1.05-.26-.68.6Z" transform="translate(-41.75 -124.74)"/><path class="cls-1" d="M469.14,225.85c-.9-.87-2.08-1.43-2.73-2.56l-.05.05c1,.78,2.19,1.31,2.73,2.55Z" transform="translate(-41.75 -124.74)"/><path class="cls-1" d="M463.76,221.32l-2.11-1.95c.65.7,1.7,1,2.06,2Z" transform="translate(-41.75 -124.74)"/><path class="cls-1" d="M463.71,221.36a6.74,6.74,0,0,1,2.65,2l.05-.05c-1.08-.39-1.72-1.38-2.64-2Z" transform="translate(-41.75 -124.74)"/><path class="cls-1" d="M471.67,227.91a5.24,5.24,0,0,1,2.46,2.07l.05,0a8.75,8.75,0,0,1-2.46-2.07Z" transform="translate(-41.75 -124.74)"/><path class="cls-1" d="M469.09,225.89a4.56,4.56,0,0,1,2.58,2l.05,0a14.46,14.46,0,0,1-2.58-2Z" transform="translate(-41.75 -124.74)"/><path class="cls-1" d="M485.11,242.85c-.09.16-.22.19-.35.09a1.49,1.49,0,0,1-.45-.41c0-.08.2-.17.34-.08S485,242.72,485.11,242.85Z" transform="translate(-41.75 -124.74)"/><path class="cls-1" d="M407.16,178.83a10.32,10.32,0,0,1,3.7,5.26A26.88,26.88,0,0,1,407.16,178.83Z" transform="translate(-41.75 -124.74)"/><path class="cls-1" d="M408.54,178.32c-.11-.14-.3-.28-.33-.44a.22.22,0,0,1,.36-.19,1.72,1.72,0,0,1,.34.45Z" transform="translate(-41.75 -124.74)"/><path class="cls-1" d="M477.84,286.41a6,6,0,0,1-.69-.73q-5.14-7.53-10.28-15.1a.76.76,0,0,1-.19-.9,177.07,177.07,0,0,1,11.43,16.53A3.16,3.16,0,0,1,477.84,286.41Z" transform="translate(-41.75 -124.74)"/><path class="cls-1" d="M474.48,268.37a2.43,2.43,0,0,1-.2-.35,3.73,3.73,0,0,1-.09-.46,2.8,2.8,0,0,1,.3.46c0,.11,0,.26-.05.39Z" transform="translate(-41.75 -124.74)"/><path class="cls-1" d="M341.43,311.9c.14.72.14,1.35-.87,1.29A1.35,1.35,0,0,1,341.43,311.9Z" transform="translate(-41.75 -124.74)"/><path class="cls-1" d="M340.61,313.13c-.05.82-.41,1.31-1.29,1.29C339.47,313.72,340.07,313.45,340.61,313.13Z" transform="translate(-41.75 -124.74)"/><path class="cls-1" d="M351,307.59a6.08,6.08,0,0,1-2.56,1.49c-2.18.73-3.63-.25-3.77-2.55-.06-.95,0-1.91,0-2.87a13.45,13.45,0,0,0-.21-2.88A73.08,73.08,0,0,1,351,307.59Z" transform="translate(-41.75 -124.74)"/></svg>