<svg id="Layer_1" data-name="Layer 1" xmlns="http://www.w3.org/2000/svg" viewBox="0 0 560 560"><defs><style>.cls-1{fill:#59344f;}.cls-2{fill:#f5e0b7;}</style></defs><path class="cls-1" d="M559.63,560c0-.94-.06-1.88-.06-2.82V.45H2.74C1.83.44.91.4,0,.38.06.25.12,0,.18,0c.49,0,1,0,1.47,0H560q0,279.15,0,558.3A7.91,7.91,0,0,1,559.63,560Z"/><path class="cls-2" d="M332.62,444.74c4.26,6.24,8.48,12.38,12.62,18.58a3.12,3.12,0,0,1,.45,2.48,15.9,15.9,0,0,1-3.23,4.63c-4.45,3.94-9.81,5.89-15.51,7.06-6.32,1.29-12.55,3.14-18.91,4.11-7.29,1.1-14.68,1.54-22,2.18-3.83.34-7.67.53-11.51.75-12.78.71-25.15-1.7-37.29-5.46-5.41-1.68-10.68-3.89-15.92-6.09a15.85,15.85,0,0,1-4.18-3.24c-1.38-1.27-1.32-2.74,0-4.1,2.41-2.49,4.84-4.95,7.23-7.46,1.93-2,3.83-4.05,5.68-6.13a24.88,24.88,0,0,0,1.8-2.58c-.62-.34-1.06-.63-1.53-.84-11.65-5.05-21.19-13-29.61-22.55a71.83,71.83,0,0,1-12.54-20.66c-5-12.46-10-25-14.31-37.69-5.35-15.6-12.06-30.44-21.23-44-2.73-4.05-6.21-7.57-9.49-11.2A26.38,26.38,0,0,1,135.92,294a11.89,11.89,0,0,1,2.76-7.61,52.49,52.49,0,0,1,16.2-13.25c17.69-9.32,36.49-15.16,55.91-19,7.12-1.42,14.25-2.83,21.43-3.79,7.85-1.05,15.76-1.8,23.66-2.26,10.17-.59,20.36-1.16,30.53-1a230.74,230.74,0,0,1,30.09,2.13c14.7,2.19,29.44,4.53,43.7,9,16.35,5.11,31.67,12.53,45.32,23.18a31.53,31.53,0,0,1,11.1,17.76,15.63,15.63,0,0,1-2.06,12.11,23.52,23.52,0,0,0-2.2,3.92c.81-.51,1.61-1,2.43-1.51,7.35-4.36,15-7.5,23.77-6.64a30.66,30.66,0,0,1,20.84,10.51c2.59,3,3.64,6.71,4.48,10.39,2.16,9.54,2.5,19.18-1.69,28.21-4.36,9.43-10.63,17.1-21,20.11-11.31,3.29-22.62,6.58-33.88,10.07-5.15,1.59-10.18,3.59-13.79,8.09-1.76,2.2-1.85,2.52,0,4.69,2.18,2.61,2.45,5.76,2,8.89-1,6.72-5.75,10.85-12.37,11.07-.73,0-1.47,0-2.2,0-6-.16-9.5-3.79-9.56-10,0-1.31-.2-2.36-1.45-2.94s-2.1-.42-2.75,1a67.76,67.76,0,0,1-9.5,16,91,91,0,0,1-24.25,20.92A7.75,7.75,0,0,0,332.62,444.74Zm46-118.2A28.59,28.59,0,0,0,372,316.3,64.14,64.14,0,0,0,341.72,300c-5.46-1.32-10.87-3.13-16.4-3.73-10.54-1.16-21.15-1.82-31.74-2.3a217.38,217.38,0,0,0-33.46.62c-6.54.71-13.13,1-19.67,1.67A38.51,38.51,0,0,0,223,303.09c-5.59,3.76-8.24,9.61-6.76,16.31a10.43,10.43,0,0,0,7.77,8.4c4.05,1.12,8.18,1.94,12.24,3,9,2.38,18.1,4.21,27.42,4.26,8.29.05,16.59-.15,24.87-.42,7.06-.23,14.13-.53,21.16-1.15a74.61,74.61,0,0,0,11.11-2.15,30.8,30.8,0,0,0,6.86-2.44,8.55,8.55,0,0,0,3.93-11.21c-2.26-5.37-6-9.24-11.57-11-2.32-.74-4.68-1.38-7-2-8.6-2.24-17.33-3.91-26.21-3.48-13.94.68-27.07,5.1-39.85,10.54a22.67,22.67,0,0,0-6.67,4.82c-2.6,2.57-2.11,5.05,1.21,6.45a53.82,53.82,0,0,0,9.39,3,103.27,103.27,0,0,0,35.48,1.78,148.55,148.55,0,0,0,15.9-3.4c1.22-.3,2.23-1.5,3.34-2.28-.95-1.15-1.7-2.63-2.88-3.38a45.56,45.56,0,0,0-14.65-5.68C282,311.73,275.72,312,269.5,312a2.5,2.5,0,0,0-1.74,1.09c-1.59,2.49-.87,4.48,1.89,5.35,3.31,1,6.54.35,9.67-.81.48-.17.71-1.06,1.07-1.61.23-.35.43-.87.75-1,1.17-.36,2.27-.13,2.69,1.19a1.88,1.88,0,0,1-1.37,2.63c-5.26,1.3-10.54,1.5-15.6-.77a3.21,3.21,0,0,1-.3-5.94,18.79,18.79,0,0,1,6.32-2.29c11.53-1.54,22.29,1,32.3,7a9.3,9.3,0,0,1,2.21,1.95c2.23,2.64,1.74,5.91-1.21,7.65a14.53,14.53,0,0,1-4.2,1.8c-5.06,1.09-10.12,2.26-15.24,2.9a108,108,0,0,1-38.7-2.46A34.7,34.7,0,0,1,238,324.53c-3.6-2.25-3.25-7.46.37-9.72A130.94,130.94,0,0,1,250,308.06a45.4,45.4,0,0,1,10-3.55c5.42-1.21,10.93-2,16.42-2.8,9.35-1.44,18.69-2.84,28.19-1.06,6.73,1.27,13.45,2.34,19.69,5.49a18.73,18.73,0,0,1,9.77,12c1.74,5.84.9,11.65-6.86,13.85-2,.56-3.93,1.28-5.89,1.93q14.53-.29,28.93-1.38C359.84,331.84,369.11,329.18,378.63,326.54Zm5.18-1.65c2.64-.82,5.38-1.47,8-2.5a29.91,29.91,0,0,0,15.64-13.8c2.26-4.2,2.71-8.84.15-13.3a40.57,40.57,0,0,0-8.74-10,83.77,83.77,0,0,0-32.63-18c-13.87-4-28.22-6.19-42.37-9.15-1.17-.24-2.37-.31-3.78-.49-.62,11.81-1.23,23.36-1.83,34.88l17.65,3.34c10.87,2.06,21.37,5.09,30.37,12.11a1.29,1.29,0,0,0,.16.09A65.15,65.15,0,0,1,383.81,324.89ZM278.27,411.44c-.62-17.42-1.13-31.35-1.62-45.28a8.5,8.5,0,0,0-6.64-7.83c-11.13-2.48-22.23-5.07-33.35-7.6-.5-.11-1.35-.24-1.47,0a2.52,2.52,0,0,0-.13,1.7c1.08,4.31,2.31,8.59,3.3,12.92,4.68,20.38,9.19,40.8,14,61.15a76.75,76.75,0,0,0,9.31,22.82,10,10,0,0,0,6.63,4.92,47.09,47.09,0,0,0,6.71.68c2.9.16,4.87-2.54,4.75-5.37C279.12,435.67,278.66,421.81,278.27,411.44Zm-91.79-74.52-.31.35c1.34,1.82,2.84,3.53,4,5.47,5.16,8.69,9.79,17.69,12.85,27.41,5,15.7,9.56,31.5,14.53,47.19,2.34,7.37,5.59,14.42,10.78,20.16a41.11,41.11,0,0,0,24.36,13.09c.72.12,1.46.19,2.44.32-6-6.57-9.5-14.18-11.84-22.37q-7-24.65-13.9-49.34c-2.2-7.92-4.55-15.81-8.51-23a15.44,15.44,0,0,0-6.07-6c-8.89-4.55-18-8.61-27.05-12.85C187.34,337.2,186.9,337.07,186.48,336.92ZM221.25,439c-.19-.23-.37-.47-.58-.68a22.57,22.57,0,0,1-6-9.1c-1.4-4.14-2.93-8.24-4.32-12.39-4.18-12.45-8.44-24.87-12.42-37.38-3.75-11.76-7.88-23.25-14.34-33.86-6.67-11-16.73-16.93-27.72-22.36.94,1.35,1.8,2.47,2.55,3.68a172.47,172.47,0,0,1,13.9,28.56c6.19,16,12.16,32,18.44,48A80.85,80.85,0,0,0,198,418.34C203.92,427.25,212.35,433.47,221.25,439Zm155.1-51.58c2.79,1.27,3.52,1.17,4.43-.25,4.69-7.27,11-12.14,19.48-13.61,1.45-.25,2.87-.63,4.3-.93,8.77-1.83,17.55-3.58,26.3-5.52a18.41,18.41,0,0,0,14-12.17c2.45-6.59,3.27-13.22-.44-19.57-5.92-10.15-20.52-11.28-28.62-2.36-2.8,3.08-3.67,6.76-3.43,11a41.57,41.57,0,0,1,4.09-1.54,8.31,8.31,0,0,1,9.61,4c2,3.79,1.76,8.69-1,11.18-4,3.62-8.39,6.53-14.12,6.71a12.36,12.36,0,0,1-13-10.84,31.41,31.41,0,0,1-.11-5.82,1.88,1.88,0,0,0-1.68-2.2c-1.64-.43-2,.84-2.45,1.89q-7.59,17.43-15.14,34.86C377.85,383.9,377.13,385.6,376.35,387.41Zm-81.26-27.65-.53.53c0,.62,0,1.24,0,1.86.45,16.06,1,32.1-.07,48.18-.87,12.51-.85,25.08-1.2,37.63-.06,2.07.86,3.11,2.84,2.93a25.32,25.32,0,0,0,5.71-1.12,8.84,8.84,0,0,0,5.06-4.37,39.59,39.59,0,0,0,4.78-15.7c1-11.62,1.27-23.3,2-34.94a46.52,46.52,0,0,0-2.46-19.44c-1-2.59-1.88-5.67-3.81-7.32C303.69,364.8,299.25,362.46,295.09,359.76Zm-60.4-23.86c-4.21-1.94-8.74-3.54-12.77-6-7.91-4.84-9.72-14.26-4.73-22.22a25.75,25.75,0,0,1,7.15-7.44c.5-.36,1-.74,1.48-1.1l-.22-.53c-7.29,1.39-14.62,2.67-21.88,4.23a56,56,0,0,0-19.53,7.76A13.5,13.5,0,0,0,178.5,317c-1.4,3.74-.23,6.61,3.45,7.81,6.15,2,12.27,4.21,18.55,5.68,7.41,1.75,15,2.9,22.48,4.12C226.94,335.27,231,335.51,234.69,335.9Zm172.79,38.77.32.64c.41-.05.83-.08,1.23-.15,6.88-1.32,13.73-2.84,20.65-3.9a46.21,46.21,0,0,0,12.09-3.54,25.45,25.45,0,0,0,13-12.66,52.67,52.67,0,0,0,4.51-24.89c-.32-7-3.92-12.29-9.36-16A25.73,25.73,0,0,0,435,309.63c-5.55.07-10.81,1.2-15,5.4-1.13,1.13-2,2.46-1.31,4.18.59,1.45,2.69,2.25,4.53,1.88,5.35-1.08,10.54-.87,15.51,1.73a16.75,16.75,0,0,1,7.25,6.42A27.64,27.64,0,0,1,450,343.72c-.31,9.78-3.09,18.22-12.28,22.63-4.14,2-8.77,3-13.26,4.07-5,1.22-10,2-15.05,3.05A6.64,6.64,0,0,0,407.48,374.67ZM212.06,256.13l-.13-.5c-3.88,1-7.75,2.06-11.65,2.93A197.46,197.46,0,0,0,160.39,272c-7,3.21-13.34,7.38-18.17,13.64-2,2.55-3.55,5.45-3.47,8.72a23.31,23.31,0,0,0,3.81,12.22c3.39,5.21,8.23,8.82,13.29,11.84,6.31,3.76,13.06,6.75,19.71,9.88,6.37,3,13.31,4,20.06,5.71,9.72,2.47,19.46,4.79,29.48,5.36,14.56.82,29.1,3.53,42.27.49-6.56-.43-14.54-.86-22.51-1.5-7.23-.59-14.51-1-21.66-2.23-8.45-1.43-16.81-3.53-25.17-5.51-6.52-1.54-13.09-3-19.45-5.12a71.75,71.75,0,0,1-21-10.53c-4.23-3.19-8.35-6.42-11.08-11.28-3.57-6.37-3.82-12.77-.08-18.88a24.41,24.41,0,0,1,10.07-9.12c6.71-3.27,13.53-6.32,20.44-9.1C188.35,262,200.16,258.84,212.06,256.13ZM254,479.5c2.83,0,5.21-.88,6.4-3.42a78.5,78.5,0,0,0,3.4-9.44c.55-1.73-.36-4.14-1.92-4.76-3.81-1.5-7.68-2.8-11.55-4.1a2,2,0,0,0-2.69,1.17c-2.09,4.31-4.29,8.57-6.3,12.92-1.33,2.87-1,3.51,1.7,5a3.66,3.66,0,0,0,1,.45Q249,478.44,254,479.5Zm-21.41-5.12c.74-.33,2.34-.5,2.86-1.36,3.05-5,5.83-10.27,8.76-15.4.7-1.23.42-2.09-.73-2.55-2.31-.93-4.62-2.11-7-2.42a6.8,6.8,0,0,0-4.81,1.61c-3.82,3.37-7.35,7.1-11,10.69-2,1.94-1.91,4.21.39,5.63A29.39,29.39,0,0,0,232.56,474.38Zm51.58,4.75c-.43-2.18-.74-4-1.19-5.85a2.76,2.76,0,0,0-1-1.64Q275,468,268,464.55c-.37-.18-1.51.3-1.56.6a103.34,103.34,0,0,0-1.51,11.31c-.11,2.25,1.67,3.55,3.86,3.49q5.49-.13,11-.38C281.18,479.5,282.61,479.29,284.14,479.13ZM374,385a169.42,169.42,0,0,1-43.29,53.42,6.52,6.52,0,0,0,1.13-.45c5.46-3.53,11-6.92,16.35-10.65a38.78,38.78,0,0,0,12-12.81c5-9,10.15-18,13.37-28C373.64,386,373.8,385.52,374,385Zm-56.27-92.58c.63-11.69,1.26-23.29,1.88-35l-5.1-.78a15.13,15.13,0,0,0-.22,1.55c-.38,10-.78,20-1.12,30.06C313,292.69,313.05,292.7,317.69,292.43Zm-5.42-.44c.48-11.87,1-23.57,1.44-35.42l-4-.45c-.07.63-.14,1-.15,1.36q-.44,16-.85,32c-.06,2.62,0,2.62,2.45,2.63C311.44,292.1,311.73,292,312.27,292Zm-8.72-.69c.07-.51.15-.93.17-1.35q.48-16.06,1-32.14c.08-2.7-.27-3-3.11-2.48q-.52,17.92-1.05,36Zm77,114.77-3.64,1.8c.15,3.15,1.77,5,4.75,5.37a11.47,11.47,0,0,0,9.39-3.27c1.92-1.76,1.65-3.8,1.09-6s-2.38-3.19-4.27-3.55-3.39,1.16-4.47,2.73c-.75,1.09-1.34,2.42-.17,3.58s2.32.5,3.32-.25,2-1.77,3-2.68a4.58,4.58,0,0,1-1.92,5.12C385.37,410.06,381.79,408.65,380.59,406.07ZM305.94,255.54c-.05.87-.1,1.42-.12,2q-.46,15.89-.93,31.78c-.07,2.55.1,2.71,2.93,2.16.33-11.77.65-23.59,1-35.55Zm-8.6-.82c-.41,12.2-.81,24.15-1.22,36.19l2.93.25c.36-12.2.7-24.15,1.05-36.26Zm114,103a7.74,7.74,0,0,0,7.2-1.3,6.72,6.72,0,0,0,1.75-6.57,5.77,5.77,0,0,0-8.94-3.33c-1.95,1.42-2.25,4-.77,6.57,1,1.75,2.83,2.22,4.94,1.26.63-.29,1.24-.6,2.16-1C416.76,357.05,413.84,356.89,411.31,357.77ZM294.06,290.83a4.08,4.08,0,0,0,.21-.8q.57-17.13,1.14-34.26c.06-1.7-.89-1.36-2-1.2-.38,12-.76,23.94-1.14,35.95Zm-35.77-.56c1-.14,2.17.44,2.15-1.45-.1-10.72-.13-21.44-.19-32.16,0-.63-.11-1.26-.19-2.07C258.7,255.63,257.54,282.43,258.29,290.27Zm10.16-.5V281q0-12.69,0-25.38c0-.73.12-1.73-1-1.46-.39.09-.85.94-.85,1.44,0,11.16,0,22.31,0,33.47a3.59,3.59,0,0,0,.19.75Zm20.76-35.64a3.64,3.64,0,0,0-.14.67q-.24,17.1-.43,34.2c0,.41.44.82.68,1.22.27-.45.75-.89.77-1.36.35-11,.65-22,1-33.06C291.12,254.42,290.74,253.76,289.21,254.13Zm-15.35,35.5c1.9.64,1.92-.44,1.9-1.61-.1-6.71-.21-13.41-.27-20.12,0-4.69,0-9.38,0-14-1.45-.47-1.65.16-1.64,1.27,0,5.33,0,10.66,0,16Zm5.86-35.85v2.39q.11,16,.21,32c0,.85-.37,2.06,1.39,1.89,0-2.18,0-4.35,0-6.53q0-14.1,0-28.21C281.36,254.19,281.34,253.17,279.72,253.78Zm5.15,18.38h0v16.2a4.66,4.66,0,0,0,0,1.12c.07.28.37.49.57.73.18-.2.46-.38.51-.62a5.67,5.67,0,0,0,.07-1.31c.13-10.92.27-21.84.35-32.76,0-.57-.49-1.15-.75-1.73a5.59,5.59,0,0,0-.7,1.8C284.85,261.12,284.87,266.64,284.87,272.16Zm6.24,200.57-.33.48a13.71,13.71,0,0,0,.88,2.6c.29.5,1.18,1.19,1.46,1.05a14.76,14.76,0,0,0,2.66-2s-.25-.6-.46-.68C293.93,473.66,292.51,473.21,291.11,472.73Z"/><path class="cls-2" d="M128.18,265.6l-14.26,5.45c.33-28.61.65-57,1-85.34l-.26-.08c-.25.9-.54,1.79-.74,2.7q-3.24,15.43-6.45,30.88c-.3,1.4-.48,2.83-.65,4.26-.13,1.18-.66,1.81-1.88,1.79-2.69,0-5.38,0-8-.13-.53,0-1.31-.86-1.45-1.45-2.89-12.13-5.7-24.28-8.53-36.42a5.45,5.45,0,0,0-.77-1.91c0,.47-.11.93-.11,1.39q-.36,40.69-.74,81.38A7.33,7.33,0,0,0,86.77,273c1.49,1.89,2.84,3.88,4.47,6.14l-17.52,6.41c.45-51.49.9-102.63,1.36-154,3.53,0,7-.06,10.44.07.43,0,1,.93,1.21,1.53,2.47,9.64,5,19.28,7.28,29,2.58,10.78,5,21.61,7.44,32.42a3.12,3.12,0,0,0,.68,1.43c1-4.67,2-9.33,3-14q4.38-20.79,8.75-41.58c.53-2.51,1-5,1.61-7.53.12-.51.79-1.24,1.22-1.26,3.35-.1,6.7-.05,10.31-.05v1.93q-.75,62.92-1.52,125.84C125.47,261.72,125.36,264,128.18,265.6Z"/><path class="cls-2" d="M471.62,198.1c-4.61,0-9,0-13.38.07-.37,0-1,.94-1,1.47-.12,3.76-.12,7.53-.13,11.29q0,19.13-.05,38.24c0,6.66,0,13.31.05,20,0,2.7-.15,2.82-2.54,2q-7-2.37-14.06-4.79a7.07,7.07,0,0,1-1-.6,27.37,27.37,0,0,1,3-3.13,5.63,5.63,0,0,0,2.18-5q0-16.84.05-33.71.18-37.09.42-74.19,0-5.56,0-11.11a4.89,4.89,0,0,1,2-4,12.36,12.36,0,0,1,9-3.09c8.35.32,16.72.27,25.08.27,1.58,0,2.09.48,2.12,2.12.33,18.58.74,37.16,1.11,55.74q.57,28.64,1.08,57.26c.18,10.67.29,21.34.43,32,0,.8,0,1.61,0,3l-17.69-6.58a13.38,13.38,0,0,1,2.38-1.71c2.33-.93,2.62-2.79,2.57-5q-.61-27.39-1.17-54.8C472,208.73,471.79,203.6,471.62,198.1Zm-13.81-7.69h13.75c-.41-16.89-.82-33.72-1.24-50.79H457.81Z"/><path class="cls-2" d="M157.35,255l-17.62,6.45c.37-4.26.72-8.17,1.06-12.07q2.75-31.61,5.48-63.2,2.14-24.66,4.25-49.32a2.31,2.31,0,0,1,.43-1.38c2.11-2,4.16-4.06,7.35-4,8.11,0,16.23.09,24.34.06,1.39,0,1.89.33,1.88,1.88-.34,33.78-.6,67.55-1,101.33,0,2,.44,3.47,2.12,4.54s3.14,2.16,5,3.43l-19,7.11V197H157.21a20,20,0,0,0-.42,2.25q-1.47,16.67-2.89,33.33c-.44,5-.94,10-1.3,15a4.2,4.2,0,0,0,.73,2.52C154.44,251.61,155.75,253,157.35,255ZM172,137.13c-2.47.15-4.95.42-7.44.43-2,0-2.7.8-2.87,2.94-.88,11.7-1.94,23.38-2.95,35.07-.38,4.48-.78,9-1.18,13.54H172Z"/><path class="cls-2" d="M211.69,165.44c3.54-3.9,8.31-5.83,13.17-8.12-3.76-5.21-7.41-10.25-11.18-15.46-3.38,3.42-6.7,6.65-9.84,10.06a5,5,0,0,0-1,3.11q-.27,31.44-.37,62.9a5.5,5.5,0,0,0,1.25,3.5c2.31,2.37,4.89,4.47,7.37,6.69a1.73,1.73,0,0,0,2.47.06c4-3.13,6.72-7.37,9.08-11.87a1.29,1.29,0,0,0,.11-.55c0-6.13,0-12.27,0-18.54h-6.12a41.29,41.29,0,0,1-.06,5.09,5.2,5.2,0,0,1-1.28,2.91c-1.83,1.78-3.87,3.32-5.82,4.95l-.48-.3c0-4.25,0-8.49,0-12.74a2.23,2.23,0,0,1,.44-1c.09-.14.29-.22.43-.34,7.25-6.28,7.25-6.29,16.68-6.25l5.86.05c1.24,0,1.88.47,1.86,1.9-.13,10-.19,20-.34,29.94a4.14,4.14,0,0,1-.76,2.42c-2.6,3.15-5,6.54-8.09,9.15-1.86,1.6-4.68,2.2-7.17,2.82-5.48,1.37-11,2.55-16.54,3.62a4.58,4.58,0,0,1-3.34-.76c-2.85-2.25-5.53-4.71-8.2-7.19a3.2,3.2,0,0,1-.83-2.09c0-12.75.15-25.49.23-38.24q.07-14.12.14-28.23c0-.63,0-1.25,0-1.88a7.38,7.38,0,0,1,2.46-5.67c5.67-5.42,11-11.23,16.51-16.82a94.73,94.73,0,0,1,7.06-6.54c.68-.57,1.94-.4,2.93-.57,2.74-.46,4.59.6,6.25,3,3.81,5.45,8,10.65,11.93,16,1.81,2.43,1.82,3.27-.86,4.7C230,158.23,224,161,218.15,163.9c-1.48.72-3,1.32-4.55,1.91a9.06,9.06,0,0,1-1.65.3Z"/><path class="cls-2" d="M424.75,150.84a11.75,11.75,0,0,1,1.43-2.12c2.49-2.37,1.87-5.38,1.66-8.28a1.49,1.49,0,0,0-1.08-.9c-5.3,0-10.6,0-16.09,0,.23,16.91.45,33.7.68,50.85h27.39l.09.75c-7.89,7.11-17.55,7.21-27.51,6.55,0,1.37,0,2.41,0,3.45.21,14.38.46,28.76.6,43.13,0,1.89.53,2.81,2.35,3.29,4.18,1.1,8.31,2.41,12.69,3.71V244.3l-6.19-1c2.82-2,5.07-3.85,8.13-3.93,3.22-.08,6.44,0,10,0v2c0,4.71,0,9.42-.06,14.13a4.25,4.25,0,0,1-1.11,2.54,46,46,0,0,1-4.79,4.36,2.77,2.77,0,0,1-2.22.54c-9-3-18.12-6-27-9.39-3.07-1.17-4.16-4.52-4.22-7.73-.28-15-.4-30-.58-45q-.33-27.67-.65-55.37c0-3,0-6,.19-9a3.32,3.32,0,0,1,1.09-2.16,11.93,11.93,0,0,1,8.06-2.87c10.25.23,20.5.16,30.76.12,1.7,0,2.48.47,2.39,2.31-.12,2.45,0,4.9-.19,7.34a2.94,2.94,0,0,1-1.12,2q-4.51,3-9.19,5.75c-1.56.93-3.25,1.63-4.87,2.44Z"/><path class="cls-2" d="M286.1,131.48c-.26,4.46-.48,8.77-.79,13.07a2.22,2.22,0,0,1-.85,1.37,34,34,0,0,1-11.63,5.77,3.51,3.51,0,0,1-1,0c.29-4.51.56-8.87.85-13.58H255.06v36.7h26.8c-.8,2.37-1.86,4.14-3.82,5.1a21,21,0,0,1-9.82,2.48c-3.9-.09-7.81,0-11.72-.08-1.24,0-1.69.34-1.68,1.71q.12,17.79.09,35.59c0,1.44.4,2,1.83,2.09,4.93.19,9.85.46,15,.7.12-1.56.22-2.9.36-4.66-1.4.17-2.62.36-3.84.46a4,4,0,0,1-1.09-.23c.16-.41.2-1,.49-1.19,3.48-2.18,6.94-4.4,11.29-4.25,1.88.06,3.77-.2,5.66-.32,1.21-.08,1.84.46,1.82,1.75-.07,3.64-.09,7.28-.23,10.92a2.73,2.73,0,0,1-1,1.69c-3.5,2.93-7.2,5.25-12,5.18-9.83-.14-19.65-.07-29.48-.08h-2.39c0-1,0-1.81,0-2.6q.26-32.67.51-65.34c.07-9.29.08-18.58.14-27.86,0-.46.05-1.12.34-1.34,2-1.61,4-3.36,6.76-3.34q16.74.17,33.49.28C283.66,131.49,284.69,131.48,286.1,131.48Z"/><path class="cls-2" d="M313.33,197.54c-1.6,1.48-3.14,3.06-4.84,4.42a4.58,4.58,0,0,0-1.88,4c.12,3.82.16,7.65.28,11.47a4.48,4.48,0,0,0,2.72,3.94,19.49,19.49,0,0,0,12.24,2.14c1.11-.16,1.2-.82,1.2-1.7,0-2.45,0-4.9,0-7.35q0-12.15,0-24.3c0-2.35-.39-2.54-2.46-1.69q-11.79,4.88-23.64,9.62a9,9,0,0,1-2.34.25c-1.17.13-1.64-.35-1.61-1.6.09-3,.07-6,.09-9.05,0-9.73.08-19.46.07-29.2a3.88,3.88,0,0,1,1.36-3c5.6-5.51,11.05-11.17,16.63-16.71,2.5-2.48,5.12-4.85,7.79-7.13a4.85,4.85,0,0,1,6.63.85c3.79,4.76,7.68,9.45,11.29,14.34,2.05,2.78,1.55,8.86-2.7,10.42-4.44,1.63-8.72,3.72-13.08,5.6-.47.21-.94.4-1.77.75,1.94-3.75,5-5.31,8.61-6.66l-11.42-15.18c-3.35,3.43-6.65,6.67-9.76,10.08a4.84,4.84,0,0,0-.77,3c-.07,11.37-.07,22.73-.09,34.1,0,.1.11.2.24.45l15.32-6c2.74-1.08,5.45-2.2,8.22-3.17.52-.18,1.24.23,1.87.39.09,0,.14.2.24.27,3.3,2.47,3.87,5.83,3.77,9.86q-.36,15.72.05,31.46a7.61,7.61,0,0,1-4,7.47,12.59,12.59,0,0,1-7.4,2.21c-4.74-.22-9.51-.13-14.26-.16-6.1,0-10.61-3.31-14-8.09-1.39-2-1.82-4.88-2.12-7.43-.34-2.9,0-5.89,0-8.84a2.84,2.84,0,0,1,1.75-3c3.05-1.39,6.07-2.84,9.13-4.19,2.28-1,4.61-1.87,6.93-2.8.41-.16.85-.28,1.27-.43Z"/><path class="cls-2" d="M361.24,138.58H350.1c0,1.7.1,3.32,0,4.92a3,3,0,0,1-1,1.9c-1.8,1.36-3.71,2.57-5.88,4-.11-1.63-.26-3-.29-4.31-.05-2-.1-4,0-6,.06-1.33-.09-3.1.64-3.87,1.76-1.83,3.75-3.68,6.57-3.67q21.6.08,43.21.13c1.33,0,1.86.38,1.77,1.82-.19,3.07-.25,6.15-.39,9.22a1.6,1.6,0,0,1-.27,1,20,20,0,0,1-7.58,4.13c-.17-2.75-.39-5.17-.44-7.59,0-1.29-.46-1.76-1.72-1.74-3.05,0-6.11,0-9.16,0-1.08,0-1.6.34-1.59,1.47,0,2.45,0,4.89,0,7.34.39,25.62,1,51.24,1.06,76.86a30.74,30.74,0,0,0,5.37,17.48c.44.66.83,1.35,1.55,2.54l-26-8.69c2.14-1.36,3.75-2.42,5.41-3.41a2.83,2.83,0,0,0,1.54-2.82q-.89-42.75-1.66-85.51C361.22,142.12,361.24,140.45,361.24,138.58Z"/><path class="cls-2" d="M261.92,122.59a14.51,14.51,0,0,1,1.55-1.19c4.21-2.42,5.75-9.14,3.81-13.1a43.5,43.5,0,0,0-4.67-7.81c-3.15-4-11.25-5.9-15.87-3.75a9.8,9.8,0,0,0-3.65,3.56c-4.22,6.55-6,14.15-.78,23.35a8.23,8.23,0,0,1-4.56-3.49,15.14,15.14,0,0,1-1.1-15c3.48-8,14.86-15,24.12-11.52a14.66,14.66,0,0,1,6.1,3.85,34.61,34.61,0,0,1,5.3,8.9c1.59,3.78.64,7.39-1.89,10.71a17.3,17.3,0,0,1-8.1,5.93Z"/><path class="cls-2" d="M288.19,152.69c1.07-3.46,2-6.34,2.83-9.26a10.75,10.75,0,0,0,.23-2.61c.08-2.26-.56-4.1-3-4.79.17-.4.21-.67.36-.81a29.21,29.21,0,0,1,11.65-6.78,1.88,1.88,0,0,1,2.57,1.87c0,2.83.22,6-.87,8.43-2.35,5.26-5.83,9.84-10.93,12.77A24.4,24.4,0,0,1,288.19,152.69Z"/><path class="cls-2" d="M324.72,123.05a5,5,0,0,1,2.36-4.17c1.77-1.08,3.53-2.2,5.36-3.16,2.85-1.5,5.62-.89,7.17,1.44,1.91,2.87,1.82,7-.58,8.94a22.85,22.85,0,0,1-6.46,3.73C328.41,131.33,324.73,128.18,324.72,123.05Zm8.78,4.44c2,0,3-.58,3.06-2.62a11.83,11.83,0,0,0-1-5.35,3.6,3.6,0,0,0-6-.54,5,5,0,0,0-.08,5.32C330.29,126,331.26,127.63,333.5,127.49Z"/><path class="cls-2" d="M345.8,242.5c0,2.51-2.63,5-5.37,5.07-2.5.05-4.32-1.91-4.36-4.71,0-2.18,3.17-5.13,5.65-5.19C343.85,237.62,345.78,239.9,345.8,242.5Zm-2.41,1.27c0-2.17-1.34-4.32-2.68-4.29s-2.29.63-2.26,2.27c0,2.31,1.45,4.16,3.32,4.23S343.14,244.62,343.39,243.77Z"/><path class="cls-2" d="M295.31,85.31a9.37,9.37,0,0,1-2.41-1.93c-.83-1.2-.15-4,1.16-5A16.07,16.07,0,0,1,298.54,76a3.24,3.24,0,0,1,2.68,1,3.64,3.64,0,0,1,.47,4.38C300.42,83.61,298.34,84.72,295.31,85.31Zm4.93-4.62c-.82-1.25-1.25-2.35-2.05-2.92-.33-.24-1.48.55-2.16,1a2.38,2.38,0,0,0-.71,3.45,3.13,3.13,0,0,0,2.78,1C298.92,83,299.44,81.71,300.24,80.69Z"/></svg>